<svg width="180" height="50" viewBox="0 0 180 50" fill="none" xmlns="http://www.w3.org/2000/svg">
<path d="M6.91452 47.297L6.44093 47.3414L5.79785 47.436L5.62108 47.4367L4.31018 47.6295L4.0803 47.6128L3.97336 47.4011L4.01482 47.1676L4.03154 46.9377L4.02644 46.5594L4.01769 46.1564L4.06206 45.7708L4.02858 45.3714L4.07368 45.1627L4.04094 44.9401L4.06494 44.7596L4.03947 44.5865L4.05983 44.3814L4.0591 44.2046L4.0329 43.8547L4.03507 43.5259L4.1049 43.3134L4.09616 42.9104L4.07069 42.7373L4.09106 42.5321L4.09323 42.2033L4.07504 42.0796L4.13032 41.7683L4.08375 41.6235L4.11066 41.2911L4.15939 41.107L4.15866 40.9302L4.17829 40.5483L4.20229 40.3679L4.22483 39.8339L4.17025 39.4629L4.21826 39.1021L4.21315 38.7238L4.26189 38.5398L4.25751 38.3383L4.25678 38.1615L4.23131 37.9883L4.30842 37.8254L4.34768 37.0615L4.39278 36.8528L4.41678 36.6724L4.37022 36.5276L4.39348 36.1704L4.43785 35.7848L4.36071 35.0887L4.40945 34.9046L4.35778 34.3815L4.43489 34.2186L4.45525 34.0134L4.45452 33.8367L4.40796 33.6919L4.40722 33.5151L4.45886 33.179L4.4574 32.8255L4.50977 32.6662L4.4843 32.493L4.53304 32.309L4.48647 32.1642L4.51047 31.9838L4.48791 31.6586L4.51555 31.5029L4.51846 31.3509L4.4959 31.0257L4.4988 30.8737L4.42387 30.7078L4.45441 30.4001L4.50678 30.2408L4.50969 30.0887L4.68573 29.9112L5.10621 29.8494L5.25097 29.8028L5.42775 29.8021L5.72091 29.7337L5.89405 29.7082L6.09556 29.7039L6.3429 29.6675L6.88341 29.5627L8.73481 29.2651L9.30732 29.2062L9.50883 29.2018L10.2225 29.0716L10.7666 28.9915L10.9856 28.934L11.2366 28.9224L11.4628 28.9144L11.6119 29.0693L11.5778 29.3523L11.5996 29.5007L11.6411 30.1263L11.6629 30.2748L11.6142 30.4588L11.6149 30.6356L11.612 30.7876L11.5924 31.1695L11.6215 31.3674L11.5735 31.7282L11.5706 31.8803L11.5437 32.2127L11.3 32.2739L10.2611 32.4267L9.96797 32.495L8.36027 32.7315L7.77029 32.8436L7.73975 33.1513L7.74048 33.3281L7.79142 33.6743L7.73904 33.8337L7.76815 34.0315L7.76307 34.5124L7.76454 34.8659L7.74127 35.2231L7.71727 35.4035L7.77111 35.5978L7.73329 35.856L7.74931 36.3085L8.19452 36.243L9.06384 36.1404L9.52651 36.0218L10.1696 35.9272L10.3747 35.9476L10.5522 36.1236L10.5464 36.4277L10.5755 36.6256L10.5661 36.9049L10.5428 37.2621L10.5188 37.4425L10.4992 37.8245L10.5247 37.9976L10.4796 38.2064L10.481 38.5599L10.465 38.9666L10.4665 39.3202L10.4243 39.3769L10.177 39.4133L9.8096 39.4926L9.587 39.5253L8.97229 39.641L8.54817 39.6781L8.2761 39.7181L7.9582 39.7902L7.73559 39.8229L7.67668 40.1095L7.64977 40.442L7.65271 41.1491L7.61488 41.4074L7.59816 41.6372L7.60981 41.8882L7.58581 42.0686L7.57709 42.5247L7.57275 43.1824L7.60185 43.3803L7.71534 43.4646L8.06889 43.4632L9.52819 43.2485L9.8781 43.2223L10.4259 43.167L11.1148 43.0404L11.2988 43.0891L11.3032 43.2907L11.293 43.3932L11.2836 43.6726L11.288 43.8741L11.2691 44.4328L11.3164 44.7543L11.2924 44.9347L11.2647 45.0904L11.2655 45.2672L11.2458 45.6491L11.2829 46.0732L11.2662 46.3031L11.232 46.5861L8.88231 46.9317L8.49021 47.0147L8.16503 47.0372L8.02026 47.0838L7.50085 47.1602L7.10875 47.2431L6.91452 47.297ZM28.664 46.3973L27.943 46.4781L27.6921 46.4897L27.5437 46.5116L27.3669 46.5123L27.2068 46.2831L27.1777 46.0853L27.2424 44.6354L27.2657 44.2782L26.1243 44.4209L25.6085 44.522L23.3679 44.7505L23.0005 44.8298L22.8311 44.88L22.6295 44.8844L22.3895 44.9702L21.9901 45.0037L21.8453 45.0502L21.6722 45.0757L21.4285 45.1368L21.2554 45.1623L21.0539 45.1667L19.7641 45.3311L19.0577 45.5108L17.5096 45.6375L17.1423 45.7168L16.9728 45.767L16.2235 45.8266L15.9798 45.8877L15.7535 45.8958L15.4073 45.9467L15.2378 45.9969L13.9269 46.1897L13.7574 46.2399L13.4744 46.2057L13.3391 45.9729L13.342 45.8209L13.3019 45.5488L13.3405 45.4674L13.3252 45.1916L13.2786 45.0469L13.3383 44.937L13.3303 44.7108L13.3616 44.5798L13.3601 44.2263L13.4263 43.9891L13.4001 43.6392L13.3746 43.4661L13.3775 43.314L13.4066 42.6528L13.4161 42.3734L13.4437 42.2177L13.4495 41.9137L13.4488 41.7369L13.4546 41.4328L13.4291 41.2597L13.4313 40.9308L13.4618 40.6231L13.4887 40.2907L13.4953 40.1634L13.5185 39.8062L13.56 39.5727L13.5273 39.3501L13.5265 39.1733L13.5222 38.9718L13.4967 38.7986L13.4989 38.4698L13.5367 38.2116L13.5454 37.7554L13.5759 37.4477L13.5752 37.2709L13.6479 36.9065L13.6188 36.7086L13.6479 36.0473L13.6537 35.7433L13.7017 35.3824L13.6726 35.1846L13.7206 34.8237L13.6915 34.6259L13.6901 34.2723L13.6966 34.145L13.6457 33.7987L13.733 33.5332L13.6682 33.2648L13.6878 32.8828L13.6835 32.6813L13.7351 32.3452L13.706 32.1474L13.7293 31.7902L13.7278 31.4366L13.73 31.1078L13.7045 30.9347L13.7387 30.6517L13.7416 30.4996L13.7721 30.1919L13.7503 30.0435L13.7772 29.7111L13.7757 29.3575L13.8027 29.0251L13.7983 28.8236L13.8397 28.59L14.1009 28.4758L14.744 28.3812L14.9208 28.3805L15.638 28.275L15.9916 28.2735L16.1895 28.2444L16.359 28.1942L16.6347 28.1789L16.8114 28.1782L17.0057 28.1244L17.2108 28.1447L17.4516 28.2356L17.4844 28.4582L17.5113 28.9849L17.4706 29.3952L17.4473 29.7524L17.448 29.9292L17.4524 30.1307L17.4328 30.5126L17.4335 30.6894L17.4131 30.8945L17.4139 31.0713L17.3622 31.4074L17.4088 31.5522L17.4001 32.0083L17.3659 32.2913L17.3492 32.5212L17.3077 32.7547L17.291 32.9846L17.3099 33.285L17.3114 33.6386L17.2837 33.7942L17.2597 33.9747L17.3099 34.1442L17.2168 34.7138L17.222 35.0921L17.2438 35.2405L17.2205 35.5976L17.2176 35.7497L17.2191 36.1032L17.27 36.4495L17.222 36.8103L17.2475 36.9835L17.2489 37.337L17.1791 37.5494L17.2264 37.871L17.2206 38.1751L17.1937 38.5075L17.121 38.872L17.1231 39.4023L17.1741 39.7486L17.1253 39.9326L17.1268 40.2862L17.1239 40.4382L17.1741 40.6077L17.1188 40.9191L17.1159 41.0711L17.089 41.4036L17.0898 41.5804L17.0381 41.9165L17.0883 42.086L17.0927 42.2875L17.1072 42.3864L17.7219 42.2707L18.1002 42.2656L18.7149 42.1499L19.4111 42.0728L19.4766 41.6589L19.4759 41.4821L19.4249 41.1358L19.4773 40.9765L19.4482 40.7786L19.478 40.2941L19.4765 39.9406L19.4991 39.4066L19.4947 39.2051L19.4758 38.9047L19.5201 38.5191L19.4954 37.6636L19.5034 37.0307L19.5223 36.472L19.5055 35.8427L19.5084 35.6907L19.5338 35.0047L19.568 34.7217L19.6197 34.3856L19.5898 34.011L19.5884 33.6574L19.6509 33.3955L19.6429 33.1693L19.6065 32.9219L19.6553 32.7379L19.664 32.2818L19.6683 31.6241L19.6392 31.4263L19.645 31.1222L19.6959 30.6093L19.6617 30.0332L19.6937 29.2198L19.7395 28.3287L19.7177 28.1803L19.7315 28.1024L19.7024 27.9046L19.7402 27.6463L19.8813 27.575L20.1323 27.5634L20.3266 27.5095L20.7856 27.3662L20.9587 27.3407L21.2381 27.3502L21.4359 27.3211L21.6127 27.3204L21.8601 27.284L22.7716 27.1246L22.9694 27.0955L23.1993 27.1122L23.3135 27.3734L23.2263 27.6389L23.2095 27.8688L23.2146 28.2471L23.2234 28.6501L23.179 29.0357L23.2125 29.4351L23.1674 29.6438L23.1754 29.8701L23.1769 30.2236L23.1812 30.4251L23.1572 30.6056L23.1834 30.9555L23.1813 31.2843L23.1362 31.4931L23.1158 31.6982L23.1704 32.0692L23.15 32.2744L23.1478 32.6032L23.1413 32.7305L23.1108 33.0382L23.1573 33.183L23.1304 33.5154L23.0817 33.6995L23.0824 33.8763L23.0628 34.2582L23.0162 34.9726L23.0708 35.3436L23.0228 35.7044L23.0279 36.0827L22.9792 36.2667L22.9836 36.4682L23.0098 36.8182L22.9326 36.9811L22.8934 37.745L22.8483 37.9537L22.8243 38.1342L22.8709 38.2789L22.8476 38.6361L22.8032 39.0217L22.8804 39.7179L22.8316 39.9019L22.8833 40.425L22.8062 40.5879L22.7858 40.7931L22.7866 40.9698L22.8338 41.2914L22.8098 41.4718L23.7003 41.3408L23.9265 41.3328L24.566 41.2135L25.089 41.1618L25.0948 40.8577L25.1043 40.5784L25.1072 40.4263L25.1377 40.1186L25.137 39.9418L25.1181 39.6414L25.1173 39.4646L25.1195 39.1358L25.15 38.8281L25.1769 38.4956L25.1835 38.3683L25.2068 38.0111L25.2482 37.7776L25.2155 37.555L25.2147 37.3782L25.2104 37.1767L25.1849 37.0036L25.1871 36.6748L25.2002 36.4202L25.2307 36.1124L25.2394 35.6563L25.2634 35.4759L25.3362 35.1114L25.307 34.9136L25.3114 34.2559L25.3419 33.9482L25.3899 33.5874L25.3608 33.3895L25.4088 33.0287L25.3797 32.8308L25.3783 32.4773L25.3848 32.35L25.3339 32.0037L25.4212 31.7382L25.3564 31.4697L25.376 31.0878L25.3717 30.8863L25.4233 30.5502L25.3942 30.3523L25.4175 29.9951L25.416 29.6416L25.4182 29.3128L25.368 29.1433L25.4269 28.8567L25.4385 28.2485L25.4654 27.916L25.4639 27.5625L25.4909 27.23L25.4865 27.0285L25.5279 26.795L25.7891 26.6808L26.4322 26.5862L26.609 26.5855L27.3262 26.4799L27.6798 26.4785L27.8777 26.4494L28.0472 26.3992L28.3229 26.3839L28.8175 26.3111L29.0474 26.3279L29.0867 26.4232L29.1151 26.4442L29.1726 26.6632L29.1748 27.1935L29.1588 27.6002L29.1355 27.9574L29.1362 28.1342L29.1406 28.3357L29.121 28.7176L29.1217 28.8944L29.1013 29.0995L29.1021 29.2763L29.0504 29.6124L29.097 29.7571L29.0665 30.0649L29.0883 30.2133L29.0541 30.4963L29.0374 30.7261L28.9959 30.9597L28.9996 30.9844L28.993 31.1117L29.0185 31.2848L28.9981 31.49L28.9959 31.8188L29.0141 31.9425L28.9589 32.2538L29.0054 32.3986L28.9785 32.731L28.9298 32.9151L28.9305 33.0919L28.9029 33.2476L28.932 33.4454L28.9087 33.8026L28.9058 33.9547L28.9073 34.3082L28.9582 34.6545L28.9102 35.0153L28.9357 35.1884L28.9371 35.542L28.8673 35.7544L28.9146 36.076L28.9088 36.38L28.8819 36.7125L28.8092 37.077L28.8114 37.6073L28.8623 37.9536L28.8136 38.1376L28.815 38.4912L28.8121 38.6432L28.8623 38.8127L28.7823 39.1277L28.8041 39.2761L28.7772 39.6086L28.778 39.7853L28.7263 40.1214L28.7765 40.2909L28.7809 40.4924L28.7569 40.6728L29.4494 40.571L29.9478 40.5229L30.1391 40.6211L30.1122 40.9536L30.1056 41.0809L30.1275 41.2293L30.0751 41.3886L30.1217 41.5334L30.094 41.6891L30.0817 42.1205L30.0998 42.2441L30.0693 42.5519L30.0875 42.6755L30.0504 43.1106L30.054 43.1353L30.0555 43.4888L30.0533 43.8177L30.0119 44.0512L30.0199 44.2774L30.0104 44.5568L29.9545 45.5505L29.9341 45.7556L29.9385 45.9571L29.8861 46.1165L29.7239 46.2161L29.3529 46.2707L28.9855 46.35L28.664 46.3973ZM33.8169 24.2112L33.3892 24.2236L32.8945 24.2964L32.6188 24.3117L32.5162 24.3015L32.4587 24.0825L32.3787 23.5384L32.3321 23.3936L32.3489 23.1637L32.4325 22.8735L32.4296 22.1664L32.375 21.7954L32.4558 21.6571L32.6253 21.6069L32.7417 21.5393L33.0705 21.5414L34.7524 21.2941L34.9437 21.3923L35.0608 21.5014L35.1292 21.7945L35.0557 21.9822L35.1307 22.1481L35.1343 22.1728L35.1285 22.4769L35.0558 22.8414L35.1489 23.1309L35.1038 23.3397L35.1576 23.5339L35.018 23.9588L34.7568 24.073L33.8169 24.2112ZM37.898 23.6109L37.5692 23.6088L36.9509 23.6997L36.7988 23.6968L36.5726 23.7048L36.5398 23.4822L36.4503 23.2174L36.4394 23.1432L36.4598 22.9381L36.3885 22.797L36.5289 22.5489L36.4889 22.2768L36.4612 21.5733L36.5303 21.1842L36.5121 21.0605L36.6321 21.0176L36.8227 20.939L37.201 20.9339L38.8335 20.6938L38.9753 20.7992L39.2408 20.8865L39.3092 21.1797L39.1863 21.3747L39.2118 21.5478L39.1659 21.5798L39.1601 21.8839L39.1616 22.2374L39.23 22.5306L39.2882 22.9264L39.1864 23.0929L39.0743 23.3621L38.7637 23.4836L37.898 23.6109ZM34.716 43.2076L34.2424 43.252L33.5993 43.3466L33.4225 43.3473L32.1116 43.5402L31.8817 43.5234L31.7748 43.3118L31.8163 43.0782L31.833 42.8484L31.8279 42.4701L31.8191 42.0671L31.8635 41.6815L31.83 41.2821L31.8751 41.0733L31.8424 40.8507L31.8664 40.6703L31.8409 40.4972L31.8613 40.292L31.8605 40.1152L31.8343 39.7653L31.8365 39.4365L31.9063 39.2241L31.8976 38.8211L31.8721 38.6479L31.8925 38.4428L31.8947 38.114L31.8765 37.9903L31.9318 37.6789L31.8852 37.5342L31.9121 37.2017L31.9608 37.0177L31.9601 36.8409L31.9797 36.459L32.0037 36.2786L32.0263 35.7446L31.9717 35.3736L32.0197 35.0128L32.0146 34.6345L32.0633 34.4504L32.059 34.2489L32.0582 34.0721L32.0328 33.899L32.1099 33.7361L32.1491 32.9722L32.1942 32.7634L32.2182 32.583L32.1717 32.4382L32.1949 32.0811L32.2393 31.6955L32.1622 30.9993L32.2109 30.8153L32.1592 30.2922L32.2363 30.1293L32.2567 29.9241L32.256 29.7473L32.2094 29.6026L32.2087 29.4258L32.2603 29.0897L32.2588 28.7361L32.3112 28.5768L32.2857 28.4037L32.3345 28.2196L32.2879 28.0749L32.3119 27.8945L32.2894 27.5693L32.317 27.4136L32.3199 27.2616L32.2973 26.9364L32.3002 26.7843L32.2253 26.6185L32.2559 26.3108L32.3082 26.1514L32.3111 25.9994L32.4872 25.8219L32.9076 25.76L33.0524 25.7135L33.2292 25.7128L33.5224 25.6444L33.6955 25.6189L33.897 25.6145L34.1443 25.5781L34.6848 25.4734L36.5363 25.1758L37.1088 25.1168L37.3103 25.1125L38.0239 24.9822L38.5681 24.9022L38.787 24.8447L39.038 24.8331L39.2643 24.8251L39.4134 24.98L39.3792 25.263L39.401 25.4114L39.4425 26.037L39.4643 26.1854L39.4156 26.3695L39.4163 26.5462L39.4134 26.6983L39.3938 27.0802L39.4229 27.2781L39.3749 27.6389L39.372 27.7909L39.3451 28.1234L39.1014 28.1845L38.0626 28.3373L37.7694 28.4057L36.1617 28.6422L35.5717 28.7542L35.5412 29.062L35.5419 29.2387L35.5929 29.585L35.5405 29.7443L35.5696 29.9422L35.5645 30.423L35.566 30.7766L35.5427 31.1338L35.5187 31.3142L35.5726 31.5084L35.5347 31.7667L35.5507 32.2192L35.996 32.1537L36.8653 32.0511L37.3279 31.9325L37.971 31.8379L38.1762 31.8583L38.3537 32.0343L38.3479 32.3384L38.377 32.5363L38.3675 32.8156L38.3443 33.1728L38.3203 33.3532L38.3006 33.7351L38.3261 33.9083L38.281 34.1171L38.2825 34.4706L38.2665 34.8773L38.2679 35.2308L38.2258 35.2876L37.9784 35.3239L37.611 35.4032L37.3884 35.436L36.7737 35.5517L36.3496 35.5888L36.0775 35.6288L35.7596 35.7008L35.537 35.7336L35.4781 36.0202L35.4512 36.3527L35.4541 37.0598L35.4163 37.318L35.3996 37.5479L35.4113 37.7989L35.3872 37.9793L35.3785 38.4354L35.3742 39.093L35.4033 39.2909L35.5168 39.3753L35.8703 39.3738L37.3296 39.1592L37.6795 39.133L38.2273 39.0777L38.9162 38.9511L39.1003 38.9998L39.1047 39.2013L39.0945 39.3039L39.085 39.5832L39.0894 39.7847L39.0705 40.3434L39.1178 40.665L39.0938 40.8454L39.0662 41.0011L39.0669 41.1779L39.0473 41.5598L39.0844 41.9839L39.0677 42.2138L39.0335 42.4968L36.6838 42.8424L36.2916 42.9253L35.9665 42.9479L35.8217 42.9944L35.3023 43.0709L34.9102 43.1538L34.716 43.2076ZM54.348 40.3452L54.1429 40.3248L53.4751 40.4231L53.1994 40.4384L53.0262 40.4638L52.8495 40.4646L52.6683 40.2638L52.6639 40.0623L52.6559 39.836L52.6727 39.6061L52.7461 39.4185L52.6952 39.0722L52.7177 38.5382L52.717 38.3614L52.6915 38.1883L52.6908 38.0115L52.6682 37.6864L52.6995 37.5554L52.6733 37.2055L52.6929 36.8236L52.6733 36.3464L52.7125 35.5825L52.7715 35.2959L52.7845 35.0413L52.7409 34.7445L52.7642 34.3873L52.7882 34.2069L52.7867 33.8533L52.7612 33.6802L52.767 33.3761L52.5481 33.4336L52.3749 33.459L52.145 33.4423L51.3645 33.6329L50.9826 33.6133L50.5584 33.6504L50.5519 33.7777L50.5563 33.9792L50.5083 34.3401L50.5061 34.6689L50.4326 34.8566L50.4945 35.277L50.4705 35.4575L50.4305 36.0445L50.3621 36.6105L50.4087 36.7553L50.3287 37.0703L50.3221 37.1976L50.2705 37.5337L50.2756 37.9119L50.2291 38.6263L50.2334 38.8278L50.2102 39.185L50.2356 39.3582L50.2371 39.7117L50.2167 39.9169L50.2175 40.0936L50.2226 40.4719L50.1353 40.7374L49.952 40.8655L49.733 40.923L49.4398 40.9913L49.0761 41.0954L48.8782 41.1245L48.6942 41.0758L48.5247 41.126L48.3588 41.2009L48.0547 41.1951L47.2632 41.3115L46.7613 41.3348L46.6223 41.0773L46.5932 40.8794L46.6594 40.6423L46.7358 40.3025L46.7241 40.0515L46.7409 39.8217L46.7154 39.6485L46.743 39.4928L46.6681 39.327L46.7765 39.0331L46.8005 38.8527L46.7467 38.6584L46.7947 38.2976L46.719 37.955L46.7925 37.7673L46.8587 37.5301L46.8579 37.3534L46.8288 37.1555L46.8521 36.7983L46.8724 36.5931L46.8688 35.7093L46.8964 35.5536L46.8993 35.4015L46.9197 35.1964L46.8695 35.0269L46.9175 34.6661L46.8949 34.3409L46.9327 34.0826L46.9386 33.7786L46.9131 33.6054L46.908 33.2271L46.9567 33.0431L47.0018 32.8343L46.9727 32.6364L47.0207 32.2756L47.0389 31.5401L47.0418 31.3881L47.0403 31.0345L47.0141 30.6846L47.1116 30.3165L47.1109 30.1398L47.0847 29.7898L47.1072 29.2559L47.1094 28.9271L47.1297 28.7219L47.1275 28.1916L47.1341 28.0643L47.0831 27.718L47.153 27.5056L47.1486 27.3041L47.1515 27.152L47.1784 26.8196L47.102 26.3002L47.2278 25.9532L47.1522 25.6105L47.1762 25.4301L47.1754 25.2533L47.2242 25.0693L47.1703 24.8751L47.1943 24.6946L47.2212 24.3622L47.2023 24.0617L47.187 23.786L47.3915 23.6296L48.0098 23.5387L49.0202 23.3648L49.3702 23.3386L49.9143 23.2585L50.1507 23.1479L50.4548 23.1538L50.7094 23.1668L50.7916 23.3822L50.8135 23.5306L50.8637 23.7001L50.8331 24.0078L50.8302 24.1598L50.8564 24.5097L50.815 24.7433L50.823 24.9695L50.7932 25.454L50.7946 25.8076L50.8135 26.108L50.7648 26.292L50.823 26.6878L50.799 26.8682L50.7787 27.0734L50.8012 27.3985L50.7699 27.5295L50.7889 27.8299L50.8107 27.9783L50.7794 28.1093L50.7591 28.3144L50.7598 28.4912L50.7074 28.6505L50.7576 28.82L50.7307 29.1525L50.7067 29.3329L50.7533 29.4776L50.7329 29.6828L50.73 29.8348L50.7096 30.04L50.8864 30.0392L51.0843 30.0101L51.8052 29.9294L51.9994 29.8755L52.2999 29.8566L52.4941 29.8028L53.0172 29.7511L53.0237 29.6238L53.0332 29.3444L53.0994 29.1073L53.0739 28.9341L53.0732 28.7574L53.1423 28.3682L53.071 28.227L53.1473 27.8873L53.1502 27.7353L53.1495 27.5585L53.1451 27.357L53.1444 27.1802L53.172 27.0245L53.1466 26.8514L53.1735 26.5189L53.1509 26.1938L53.2171 25.9566L53.1734 25.6598L53.1196 25.4656L53.1189 25.2888L53.1669 24.928L53.1378 24.7301L53.1647 24.3976L53.1923 24.242L53.1945 23.9131L53.1974 23.7611L53.2636 23.5239L53.2876 23.3435L53.2374 23.174L53.2403 23.022L53.4054 22.7703L53.5502 22.7237L53.7692 22.6662L54.6596 22.5353L55.1579 22.4872L55.8504 22.3854L56.2535 22.3766L56.4375 22.4254L56.6434 22.6225L56.6405 22.7745L56.6907 22.944L56.6136 23.107L56.6529 23.2023L56.65 23.3543L56.6754 23.5275L56.6201 23.8388L56.6463 24.1887L56.6754 24.3866L56.6762 24.5634L56.6522 24.7438L56.6318 24.949L56.6544 25.2741L56.6798 25.4473L56.6777 25.7761L56.6784 25.9529L56.6515 26.2853L56.6522 26.4621L56.6282 26.6425L56.6326 26.844L56.6304 27.1728L56.6275 27.3249L56.5475 27.6399L56.5446 27.7919L56.5424 28.1207L56.5512 28.5237L56.581 28.8984L56.5083 29.2629L56.5381 29.6375L56.5352 29.7895L56.5119 30.1467L56.5127 30.3235L56.4356 30.4865L56.4647 30.6843L56.5396 30.8502L56.4872 31.0095L56.488 31.1863L56.5353 31.5078L56.536 31.6846L56.4596 32.0243L56.4604 32.2011L56.4269 32.6609L56.4487 32.8093L56.4393 33.0886L56.416 33.4458L56.392 33.6262L56.4386 33.771L56.3666 34.3122L56.4131 34.457L56.3891 34.6374L56.3615 34.7931L56.3622 34.9699L56.339 35.3271L56.3681 35.5249L56.3688 35.7017L56.3455 36.0589L56.3114 36.3419L56.2837 36.4976L56.3099 36.8475L56.3434 37.2468L56.3201 37.604L56.3209 37.7808L56.3187 38.1096L56.2947 38.29L56.31 38.5657L56.3042 38.8698L56.2482 39.0044L56.2525 39.2059L56.2285 39.3863L56.2576 39.5842L56.2336 39.7646L56.1565 39.9276L55.8706 40.0454L55.4996 40.1L55.3549 40.1466L55.037 40.2186L54.5423 40.2914L54.348 40.3452ZM62.0102 39.1929L61.5366 39.2373L60.8935 39.3319L60.7167 39.3326L59.4058 39.5254L59.176 39.5087L59.069 39.297L59.1105 39.0635L59.1272 38.8336L59.1221 38.4553L59.1133 38.0523L59.1577 37.6668L59.1242 37.2674L59.1693 37.0586L59.1366 36.836L59.1606 36.6556L59.1351 36.4824L59.1555 36.2773L59.1547 36.1005L59.1285 35.7506L59.1307 35.4218L59.2005 35.2094L59.1918 34.8063L59.1663 34.6332L59.1867 34.4281L59.1889 34.0992L59.1707 33.9756L59.226 33.6642L59.1794 33.5195L59.2063 33.187L59.255 33.0029L59.2543 32.8262L59.2739 32.4443L59.2979 32.2638L59.3205 31.7299L59.2659 31.3589L59.3139 30.998L59.3088 30.6198L59.3575 30.4357L59.3532 30.2342L59.3524 30.0574L59.327 29.8843L59.4041 29.7213L59.4433 28.9575L59.4884 28.7487L59.5124 28.5683L59.4659 28.4235L59.4891 28.0663L59.5335 27.6808L59.4564 26.9846L59.5051 26.8005L59.4534 26.2775L59.5305 26.1145L59.5509 25.9094L59.5502 25.7326L59.5036 25.5878L59.5029 25.4111L59.5545 25.075L59.553 24.7214L59.6054 24.5621L59.5799 24.389L59.6287 24.2049L59.5821 24.0602L59.6061 23.8797L59.5836 23.5546L59.6112 23.3989L59.6141 23.2468L59.5915 22.9217L59.5944 22.7696L59.5195 22.6038L59.5501 22.296L59.6024 22.1367L59.6053 21.9847L59.7814 21.8072L60.2019 21.7453L60.3466 21.6988L60.5234 21.698L60.8166 21.6296L60.9897 21.6042L61.1912 21.5998L61.4385 21.5634L61.9791 21.4586L63.8305 21.161L64.403 21.1021L64.6045 21.0977L65.3181 20.9675L65.8623 20.8875L66.0812 20.83L66.3322 20.8183L66.5585 20.8103L66.7076 20.9653L66.6734 21.2483L66.6952 21.3967L66.7367 22.0223L66.7586 22.1707L66.7098 22.3547L66.7106 22.5315L66.7076 22.6836L66.688 23.0655L66.7171 23.2633L66.6691 23.6242L66.6662 23.7762L66.6393 24.1087L66.3956 24.1698L65.3568 24.3226L65.0636 24.391L63.4559 24.6275L62.8659 24.7395L62.8354 25.0472L62.8361 25.224L62.8871 25.5703L62.8347 25.7296L62.8638 25.9275L62.8587 26.4083L62.8602 26.7619L62.8369 27.1191L62.8129 27.2995L62.8668 27.4937L62.8289 27.752L62.845 28.2044L63.2902 28.139L64.1595 28.0364L64.6222 27.9178L65.2652 27.8232L65.4704 27.8435L65.6479 28.0196L65.6421 28.3237L65.6712 28.5215L65.6617 28.8009L65.6385 29.1581L65.6145 29.3385L65.5948 29.7204L65.6203 29.8935L65.5752 30.1023L65.5767 30.4559L65.5607 30.8625L65.5621 31.2161L65.52 31.2728L65.2726 31.3092L64.9052 31.3885L64.6826 31.4213L64.0679 31.5369L63.6438 31.5741L63.3717 31.6141L63.0538 31.6861L62.8312 31.7189L62.7723 32.0055L62.7454 32.3379L62.7484 33.045L62.7105 33.3033L62.6938 33.5332L62.7055 33.7841L62.6815 33.9646L62.6727 34.4207L62.6684 35.0783L62.6975 35.2762L62.811 35.3606L63.1645 35.3591L64.6238 35.1445L64.9737 35.1183L65.5215 35.0629L66.2104 34.9363L66.3945 34.9851L66.3989 35.1866L66.3887 35.2892L66.3792 35.5685L66.3836 35.77L66.3647 36.3287L66.412 36.6503L66.388 36.8307L66.3604 36.9864L66.3611 37.1631L66.3415 37.545L66.3786 37.9692L66.3619 38.199L66.3277 38.482L63.978 38.8277L63.5859 38.9106L63.2607 38.9332L63.1159 38.9797L62.5965 39.0561L62.2044 39.1391L62.0102 39.1929ZM76.2575 37.1731L75.9782 37.1636L75.7803 37.1927L75.6035 37.1934L75.3562 37.2298L74.4447 37.3892L74.2468 37.4183L74.0169 37.4015L73.9027 37.1404L73.99 36.8749L74.0067 36.645L74.0016 36.2667L73.9929 35.8637L74.0373 35.4781L74.0038 35.0787L74.0489 34.87L74.0161 34.6473L74.0401 34.4669L74.0147 34.2938L74.035 34.0886L74.0343 33.9119L74.0081 33.562L74.0103 33.2331L74.0801 33.0207L74.0714 32.6177L74.0459 32.4446L74.0662 32.2394L74.0684 31.9106L74.0502 31.7869L74.1055 31.4756L74.0589 31.3308L74.0859 30.9984L74.1346 30.8143L74.1339 30.6375L74.104 30.2629L74.1506 29.5485L74.096 29.1775L74.144 28.8167L74.1389 28.4384L74.1876 28.2543L74.1832 28.0528L74.157 27.7029L74.2341 27.54L74.2239 26.7834L74.269 26.5746L74.293 26.3942L74.2465 26.2494L74.2697 25.8922L74.2894 25.5103L74.2617 24.8069L74.3104 24.6228L74.3082 24.0925L74.3853 23.9295L74.4057 23.7244L74.405 23.5476L74.3584 23.4028L74.3577 23.2261L74.4093 22.89L74.4079 22.5364L74.4602 22.3771L74.4348 22.204L74.4835 22.0199L74.4369 21.8751L74.4609 21.6947L74.4384 21.3696L74.466 21.2139L74.4689 21.0618L74.4464 20.7367L74.4493 20.5846L74.3743 20.4188L74.4049 20.111L74.4572 19.9517L74.4601 19.7997L74.6573 19.5938L75.2189 19.4606L75.3637 19.4141L75.5368 19.3886L75.7914 19.4017L75.9645 19.3762L76.1661 19.3719L76.4134 19.3355L76.9539 19.2307L80.2791 18.8174L80.6465 18.7381L80.816 18.6879L81.5653 18.6282L81.809 18.5671L82.0353 18.5591L82.3815 18.5082L82.551 18.458L83.8619 18.2651L84.0314 18.2149L84.3144 18.2491L84.4497 18.4819L84.4468 18.634L84.4941 18.9555L84.4556 19.037L84.4708 19.3127L84.5174 19.4574L84.4578 19.5673L84.4905 19.7899L84.4345 19.9245L84.436 20.278L84.3698 20.5152L84.3989 20.7131L84.396 20.8651L84.4214 21.0382L84.4185 21.1903L84.3894 21.8516L84.38 22.1309L84.3524 22.2866L84.3466 22.5907L84.3473 22.7674L84.3662 23.0679L84.3669 23.2447L84.3648 23.5735L84.3342 23.8812L84.3073 24.2137L84.3008 24.341L84.2775 24.6981L84.236 24.9317L84.2688 25.1543L84.2695 25.331L84.2739 25.5326L84.2994 25.7057L84.2972 26.0345L84.2594 26.2928L84.2507 26.7489L84.2696 27.0493L84.2456 27.2297L84.2223 27.5869L84.2514 27.7848L84.2223 28.4461L84.2165 28.7502L84.1685 29.111L84.1976 29.3089L84.1533 29.6944L84.1824 29.8923L84.1802 30.2211L84.1737 30.3484L84.2246 30.6947L84.1373 30.9602L84.2021 31.2286L84.1824 31.6106L84.1868 31.8121L84.1352 32.1482L84.1643 32.346L84.141 32.7032L84.1425 33.0568L84.1403 33.3856L84.1658 33.5587L84.1316 33.8417L84.12 34.4499L84.093 34.7823L84.0945 35.1359L84.0676 35.4683L84.072 35.6699L84.0305 35.9034L83.7694 36.0176L83.1263 36.1122L82.9495 36.1129L82.2322 36.2184L81.8787 36.2199L81.6808 36.249L81.5113 36.2992L81.2356 36.3145L81.0588 36.3152L80.8646 36.3691L80.6594 36.3487L80.4186 36.2578L80.3859 36.0352L80.3837 35.5048L80.4244 35.0945L80.4477 34.7374L80.4259 34.5889L80.4215 34.3874L80.4411 34.0055L80.4404 33.8287L80.4608 33.6236L80.46 33.4468L80.5117 33.1107L80.4651 32.966L80.4956 32.6582L80.4949 32.4815L80.5291 32.1985L80.5495 31.9933L80.5909 31.7598L80.6076 31.5299L80.6134 31.2258L80.588 31.0527L80.612 30.8723L80.6149 30.7203L80.6142 30.5435L80.564 30.374L80.6534 29.7796L80.6483 29.4014L80.6265 29.253L80.6497 28.8958L80.6527 28.7437L80.6512 28.3902L80.6003 28.0439L80.5988 27.6903L80.6228 27.5099L80.5966 27.16L80.6664 26.9476L80.6191 26.6261L80.6249 26.322L80.6518 25.9895L80.6751 25.6323L80.6729 25.102L80.6256 24.7805L80.6743 24.5964L80.6729 24.2429L80.6758 24.0908L80.6256 23.9213L80.6809 23.61L80.6838 23.4579L80.707 23.1007L80.7063 22.924L80.7579 22.5879L80.7077 22.4184L80.7034 22.2169L80.6888 22.1179L79.9221 22.2307L79.6958 22.2387L78.1871 22.4606L77.8444 22.5363L77.8139 22.844L77.8146 23.0208L77.8655 23.3671L77.8132 23.5264L77.8423 23.7243L77.7877 24.2124L77.7892 24.5659L77.7841 25.0468L77.7463 25.3051L77.7652 25.6055L77.7565 26.0616L77.7704 26.8429L77.7376 27.4795L77.7435 28.0345L77.686 28.6747L77.7079 28.8231L77.7071 29.5055L77.6482 29.7921L77.6708 30.1173L77.6759 30.4956L77.6774 30.8491L77.6395 31.1074L77.6476 31.3336L77.6592 31.5846L77.6352 31.765L77.6265 32.2211L77.5727 32.886L77.6018 33.0839L77.5712 33.3916L77.5451 33.9009L77.5545 34.4806L77.5473 35.2903L77.5015 36.1815L77.4986 36.3335L77.5386 36.6056L77.5008 36.8638L77.236 36.9533L76.985 36.965L76.7908 37.0188L76.4307 37.1476L76.2575 37.1731ZM88.1291 35.351L87.7297 35.3845L87.553 35.3853L87.1114 35.4755L86.9448 35.3736L86.8757 34.9037L86.9281 34.7444L86.8779 34.5749L86.9011 34.2177L86.8793 34.0693L86.9026 33.7121L86.9222 33.3302L86.9491 32.9977L86.9484 32.8209L86.9789 32.5132L86.9782 32.3364L86.9811 32.1844L86.9963 31.601L87.0487 31.4417L87.0261 31.1165L87.0254 30.9397L87.0531 30.784L87.1047 30.4479L87.1076 30.2959L87.0887 29.9954L87.0705 29.8718L87.1578 29.6062L87.1178 29.3342L87.1454 29.1785L87.1199 29.0054L87.1723 28.846L87.1425 28.4714L87.1403 27.9411L87.189 27.757L87.1846 27.5555L87.1584 27.2056L87.1824 27.0252L87.1853 26.8731L87.2093 26.6927L87.2122 26.5407L87.2355 26.1835L87.2311 25.982L87.226 25.6037L87.242 25.197L87.2689 24.8646L87.2253 24.5678L87.2027 24.2426L87.2267 24.0622L87.2754 23.8781L87.2529 23.553L87.2558 23.4009L87.2965 22.9906L87.2812 22.7149L87.2419 22.6196L87.2688 22.2872L87.2717 22.1351L87.231 21.6863L87.2514 21.4811L87.2746 21.1239L87.3161 20.8904L87.2972 20.59L87.3212 20.4096L87.2921 20.2117L87.3161 20.0313L87.3153 19.8545L87.2935 19.7061L87.3175 19.5257L87.3582 19.1154L87.3575 18.9386L87.3531 18.7371L87.3764 18.3799L87.372 18.1784L87.4237 17.8423L87.607 17.7143L88.8931 17.5251L89.211 17.4531L89.5362 17.4305L89.681 17.3839L91.3382 17.1402L91.5149 17.1395L91.8823 17.0601L92.2286 17.0092L92.6069 17.0041L92.8047 16.975L93.1335 16.9772L93.6639 16.975L94.0705 16.991L94.2509 17.015L94.4423 17.1132L94.6263 17.1619L94.9733 17.2878L95.225 17.4529L95.3422 17.562L95.5197 17.738L95.6935 17.8893L95.7968 18.0763L95.9925 18.376L96.0675 18.5419L96.2064 18.7994L96.2712 19.0678L96.3214 19.2373L96.4356 19.4985L96.4473 19.7495L96.5266 20.1168L96.552 20.29L96.6168 20.5584L96.6321 20.8341L96.6226 21.1135L96.6233 21.2902L96.6539 21.8417L96.6554 22.1952L96.6067 22.3793L96.611 22.5808L96.5623 22.7648L96.5594 22.9169L96.5317 23.0725L96.5085 23.4297L96.4634 23.6385L96.3906 24.003L96.2619 24.502L96.1782 24.7923L96.0488 25.1146L95.8807 25.5183L95.7542 25.6885L95.6247 26.0108L95.4312 26.2414L95.2944 26.5142L95.1962 26.7056L94.9111 27.0002L94.8092 27.1668L94.4884 27.3909L94.252 27.5015L93.9523 27.6972L93.5747 27.879L93.2852 27.9722L92.9673 28.0442L92.6283 28.1446L91.943 28.2959L91.4694 28.3403L90.9253 28.4204L90.5507 28.4502L90.5579 28.4997L90.5587 28.6764L90.5136 28.8852L90.5361 29.2104L90.5049 29.3413L90.5274 29.6665L90.5245 29.8186L90.5252 29.9953L90.4976 30.151L90.4983 30.3278L90.5202 30.4762L90.4969 30.8334L90.4554 31.0669L90.4496 31.371L90.4256 31.5514L90.3951 31.8591L90.3958 32.0359L90.3471 32.2199L90.3835 32.4673L90.3638 32.8492L90.4148 33.1955L90.3377 33.3584L90.3668 33.5563L90.3675 33.7331L90.3399 33.8888L90.3406 34.0655L90.2955 34.2743L90.3035 34.5006L90.3079 34.7021L90.2773 35.0098L90.1078 35.06L88.1291 35.351ZM90.6117 25.2573L91.2547 25.1627L91.5195 25.0732L91.9822 24.9547L92.1444 24.855L92.4965 24.5L92.7322 24.2126L92.8653 23.9151L92.9424 23.7521L93.0152 23.3876L93.0319 23.1578L93.0981 22.9206L93.1352 22.4856L93.1322 21.7785L93.0871 21.1281L93.0253 20.7076L92.8827 20.4254L92.7015 20.2246L92.4003 20.0668L92.1705 20.05L91.499 20.1235L90.9338 20.2319L90.7679 20.3069L90.6879 20.6219L90.6566 20.7528L90.6683 21.0038L90.6807 21.4316L90.6567 21.612L90.6261 21.9197L90.6247 22.4253L90.6116 22.6799L90.5956 23.0866L90.6145 23.387L90.6436 23.5849L90.6269 23.8147L90.5942 24.4513L90.6269 24.6739L90.6037 25.0311L90.6117 25.2573ZM103.617 33.452L102.963 33.4724L102.645 33.5444L102.468 33.5452L102.242 33.5532L101.647 33.4637L101.446 33.4681L101.06 33.4237L100.873 33.3502L100.494 33.1786L99.9938 32.8731L99.5894 32.5282L99.497 32.4155L99.3551 32.31L99.2591 32.1725L99.1099 32.0176L98.8648 31.7251L98.8429 31.5767L98.7433 31.4145L98.6967 31.2697L98.6291 31.1534L98.5578 31.0122L98.5076 30.8427L98.4363 30.7016L98.3606 30.359L98.314 30.2142L98.1671 29.7304L98.1911 29.55L98.1219 29.0801L98.1598 28.8218L98.1059 28.6276L98.0805 28.4545L98.0499 27.903L98.0979 27.5422L98.0688 27.3443L98.0673 26.9908L98.0419 26.8177L98.0899 26.4568L98.0222 26.3404L98.0244 26.0116L98.0484 25.8312L98.0571 25.3751L98.0876 25.0674L98.0403 24.7458L98.0709 24.4381L98.0454 24.265L98.0978 24.1056L98.1218 23.9252L98.1 23.7768L98.124 23.5964L98.0774 23.4516L98.1894 23.1825L98.2134 23.0021L98.1625 22.6558L98.1683 22.3517L98.217 22.1677L98.2199 22.0156L98.2185 21.6621L98.2264 21.0292L98.3246 20.8378L98.3268 20.509L98.4279 20.1657L98.4767 19.9816L98.5319 19.6702L98.6047 19.3058L98.7094 18.9871L98.7829 18.7995L98.9582 18.4452L98.9575 18.2684L99.0346 18.1054L99.1851 17.7548L99.3394 17.4289L99.4943 17.2797L99.5961 17.1132L99.8879 16.6912L100.177 16.4213L100.364 16.318L100.519 16.1689L100.79 15.9521L101.065 15.76L101.421 15.6065L101.566 15.5599L101.923 15.4064L102.166 15.3453L102.601 15.2056L102.943 15.13L103.236 15.0616L103.685 15.0208L103.837 15.0237L104.113 15.0084L104.516 14.9997L104.725 15.0448L104.926 15.0404L105.082 15.0681L105.478 15.1866L105.967 15.418L106.183 15.5125L106.329 15.6427L106.634 15.8253L106.942 16.0326L107.088 16.1628L107.187 16.3251L107.383 16.6248L107.479 16.7623L107.55 16.9034L107.625 17.0693L107.754 17.4293L107.873 17.892L107.926 18.0862L107.952 18.2594L107.974 18.5846L107.972 18.7366L108.044 19.0545L108.069 19.2276L108.092 19.5528L108.068 19.7332L108.065 19.8853L108.115 20.0548L108.151 20.3021L108.148 20.4542L108.15 20.8077L108.18 21.1824L108.213 21.5817L108.189 21.7621L108.198 22.1652L108.259 22.4089L108.175 22.6991L108.244 22.9923L108.192 23.3284L108.19 23.6572L108.163 23.9897L108.182 24.2901L108.155 24.6226L108.103 24.7819L108.094 25.238L108.127 25.4606L108.103 25.641L108.104 25.9946L108.052 26.1539L107.932 27.056L107.978 27.2007L107.898 27.5157L107.846 27.675L107.861 27.9507L107.778 28.241L107.747 28.5487L107.773 28.7219L107.738 29.0049L107.64 29.1962L107.652 29.4472L107.53 29.8189L107.397 30.2932L107.299 30.4845L107.124 30.8388L107.047 31.0018L106.945 31.1684L106.917 31.3241L106.664 31.6645L106.534 31.81L106.432 31.9766L106.168 32.2429L105.9 32.4844L105.812 32.5732L105.276 32.8794L105.107 32.9296L104.916 33.0082L104.581 33.1333L104.411 33.1835L104.15 33.2978L103.617 33.452ZM102.924 30.1173L103.246 30.07L103.577 29.9201L103.785 29.7885L104.095 29.4902L104.217 29.1184L104.315 28.7503L104.339 28.5699L104.31 28.3721L104.329 27.9901L104.353 27.8097L104.352 27.4562L104.397 27.2474L104.371 26.8975L104.42 26.7134L104.446 26.381L104.442 26.1795L104.494 26.0201L104.465 25.8223L104.43 25.7517L104.471 25.5182L104.491 25.1363L104.457 24.5601L104.498 24.3266L104.543 24.1178L104.524 23.6406L104.576 23.4813L104.489 23.0644L104.534 22.6789L104.539 22.3748L104.56 22.1696L104.584 21.9892L104.534 21.8197L104.511 21.4946L104.531 21.2894L104.555 20.9322L104.571 20.7023L104.524 20.3808L104.508 19.9283L104.486 19.6031L104.484 19.2496L104.312 18.7695L104.192 18.6356L103.986 18.4385L103.565 18.3235L103.098 18.4174L102.908 18.496L102.534 18.7026L102.319 18.9616L102.186 19.2591L102.131 19.5705L102.057 19.7582L101.956 20.1015L101.932 20.2819L101.912 20.4871L101.84 21.0283L101.847 21.0778L101.851 21.2793L101.828 21.6365L101.825 21.7885L101.777 22.1494L101.754 22.5065L101.738 22.9132L101.739 23.09L101.715 23.2704L101.72 23.6487L101.675 23.8575L101.634 24.2678L101.61 24.4482L101.611 24.8017L101.637 24.9749L101.638 25.1516L101.692 25.3459L101.643 25.5299L101.57 25.8944L101.624 26.0886L101.6 26.269L101.639 26.3643L101.622 26.5942L101.652 26.7921L101.628 26.9725L101.657 27.1704L101.637 27.5523L101.662 27.7254L101.614 27.9095L101.713 28.0717L101.732 28.3721L101.67 28.634L101.769 28.7963L101.871 29.4888L101.971 29.651L102.035 29.7427L102.216 29.9435L102.358 30.0489L102.567 30.094L102.772 30.1144L102.924 30.1173ZM112.327 31.7918L112.125 31.7962L111.948 31.7969L110.588 31.997L110.358 31.9803L110.244 31.7191L110.31 31.482L110.333 30.948L110.343 30.8454L110.334 30.4424L110.378 30.0569L110.345 29.6575L110.39 29.4487L110.357 29.2261L110.381 29.0457L110.356 28.8725L110.376 28.6674L110.379 28.5154L110.353 28.1654L110.355 27.8366L110.425 27.6242L110.416 27.2212L110.391 27.0481L110.411 26.8429L110.413 26.5141L110.395 26.3904L110.45 26.0791L110.404 25.9343L110.431 25.6018L110.479 25.4178L110.479 25.241L110.495 25.0111L110.477 24.8875L110.516 24.806L110.522 24.6787L110.545 24.1447L110.49 23.7737L110.538 23.4129L110.533 23.0346L110.582 22.8505L110.577 22.649L110.551 22.2991L110.628 22.1362L110.668 21.3723L110.713 21.1635L110.74 21.0079L110.694 20.8631L110.717 20.5059L110.761 20.1203L110.684 19.4242L110.733 19.2401L110.681 18.7171L110.758 18.5541L110.779 18.349L110.778 18.1722L110.732 18.0274L110.731 17.8506L110.782 17.5145L110.781 17.161L110.833 17.0017L110.808 16.8285L110.857 16.6445L110.81 16.4997L110.834 16.3193L110.811 15.9941L110.839 15.8385L110.842 15.6864L110.819 15.3612L110.822 15.2092L110.747 15.0433L110.778 14.7356L110.83 14.5763L110.844 14.4985L111.091 14.2853L111.483 14.2024L111.628 14.1558L111.801 14.1303L112.052 14.1187L112.67 14.0277L113.211 13.9229L115.016 13.6574L117.444 13.3256L117.815 13.271L117.992 13.2703L118.21 13.2128L118.483 13.1728L118.882 13.1393L119.014 13.3473L118.987 13.6798L119.009 13.8282L118.976 14.4647L118.998 14.6131L118.974 14.7935L118.974 14.9703L118.971 15.1224L118.927 15.5079L118.931 15.7094L118.918 15.9641L118.841 16.127L118.782 16.4136L118.546 16.5242L116.472 16.8545L114.444 17.1529L114.101 17.2285L114.071 17.5363L114.071 17.713L114.122 18.0593L114.07 18.2186L114.099 18.4165L114.094 18.8974L114.095 19.2509L114.048 19.7885L114.077 19.9864L114.096 20.2868L114.051 20.4956L114.595 20.4156L114.814 20.3581L115.143 20.3603L115.489 20.3093L115.892 20.3006L116.412 20.2242L116.946 20.2467L117.335 20.3158L117.515 20.3398L117.731 20.4344L117.919 20.5079L118.241 20.6373L118.518 20.7988L118.61 20.9116L118.812 21.084L118.961 21.2389L119.09 21.4223L119.285 21.722L119.335 21.8915L119.474 22.149L119.564 22.4138L119.589 22.5869L119.707 22.8728L119.744 23.1201L119.823 23.4875L119.824 23.6643L119.888 23.9327L119.928 24.2048L119.919 24.4841L119.891 24.6398L119.9 25.0428L119.902 25.3964L119.878 25.5768L119.857 25.782L119.833 25.9624L119.803 26.2701L119.779 26.6273L119.71 26.8397L119.637 27.2042L119.508 27.7032L119.424 27.9935L119.176 28.7122L119.046 28.8577L118.917 29.18L118.748 29.407L118.562 29.6871L118.439 29.882L118.048 30.3185L117.748 30.5142L117.512 30.6248L117.187 30.8241L116.835 31.0024L116.545 31.0955L116.224 31.1428L115.885 31.2432L115.171 31.3734L113.881 31.5379L113.634 31.5743C113.123 31.6495 112.783 31.6909 112.616 31.6987L112.327 31.7918ZM114.818 28.1151L115.132 28.0183L115.418 27.9005L115.728 27.6022L115.943 27.3432L116.076 27.0457L116.178 26.8791L116.258 26.5641L116.299 26.3306L116.33 26.0229L116.349 25.6409L116.343 25.0859L116.231 24.4959L116.145 24.0791L116.002 23.7968L115.846 23.5924L115.52 23.4382L115.311 23.3931L114.806 23.3916L114.216 23.5037L114.05 23.5786L114.034 24.1621L113.976 24.4487L113.949 24.7811L113.954 25.1594L113.955 25.513L113.917 25.7712L113.925 25.9975L113.937 26.2484L113.913 26.4289L113.904 26.885L113.868 27.4968L113.872 27.6983L113.884 27.9493L113.888 28.1508L114.567 28.1268L114.818 28.1151ZM127.07 30.0022L126.416 30.0226L126.098 30.0946L125.922 30.0953L125.695 30.1033L125.101 30.0139L124.9 30.0183L124.514 29.9739L124.326 29.9004L123.947 29.7288L123.448 29.4232L123.043 29.0784L122.951 28.9657L122.809 28.8602L122.713 28.7227L122.564 28.5678L122.318 28.2753L122.297 28.1269L122.197 27.9647L122.15 27.8199L122.083 27.7035L122.011 27.5624L121.961 27.3929L121.89 27.2518L121.814 26.9091L121.768 26.7644L121.621 26.2806L121.645 26.1002L121.576 25.6303L121.613 25.372L121.56 25.1778L121.534 25.0046L121.504 24.4532L121.552 24.0924L121.522 23.8945L121.521 23.541L121.496 23.3678L121.544 23.007L121.476 22.8906L121.478 22.5618L121.502 22.3814L121.511 21.9253L121.541 21.6175L121.494 21.296L121.525 20.9883L121.499 20.8151L121.551 20.6558L121.575 20.4754L121.554 20.327L121.578 20.1466L121.531 20.0018L121.643 19.7327L121.667 19.5522L121.616 19.206L121.622 18.9019L121.671 18.7178L121.674 18.5658L121.672 18.2122L121.68 17.5793L121.778 17.388L121.781 17.0592L121.882 16.7158L121.93 16.5318L121.986 16.2204L122.058 15.856L122.163 15.5373L122.237 15.3496L122.412 14.9953L122.411 14.8186L122.488 14.6556L122.639 14.305L122.793 13.9791L122.948 13.8299L123.05 13.6633L123.342 13.2414L123.63 12.9715L123.817 12.8682L123.972 12.719L124.244 12.5023L124.519 12.3102L124.875 12.1567L125.02 12.1101L125.376 11.9566L125.62 11.8955L126.054 11.7558L126.397 11.6801L126.69 11.6118L127.139 11.571L127.291 11.5739L127.567 11.5586L127.97 11.5499L128.178 11.595L128.38 11.5906L128.536 11.6182L128.932 11.7368L129.421 11.9681L129.637 12.0627L129.783 12.1929L130.087 12.3755L130.396 12.5828L130.541 12.713L130.641 12.8752L130.837 13.175L130.933 13.3124L131.004 13.4536L131.079 13.6194L131.208 13.9795L131.326 14.4422L131.38 14.6364L131.406 14.8096L131.428 15.1347L131.425 15.2868L131.497 15.6047L131.523 15.7778L131.545 16.103L131.521 16.2834L131.518 16.4355L131.569 16.605L131.605 16.8523L131.602 17.0043L131.604 17.3579L131.633 17.7325L131.667 18.1319L131.643 18.3123L131.652 18.7153L131.713 18.959L131.629 19.2493L131.697 19.5425L131.646 19.8786L131.644 20.2074L131.617 20.5398L131.636 20.8403L131.609 21.1727L131.556 21.3321L131.548 21.7882L131.58 22.0108L131.556 22.1912L131.558 22.5447L131.506 22.7041L131.386 23.6061L131.432 23.7509L131.352 24.0659L131.3 24.2252L131.315 24.5009L131.231 24.7912L131.201 25.0989L131.226 25.272L131.192 25.555L131.094 25.7464L131.106 25.9973L130.983 26.3691L130.851 26.8434L130.753 27.0347L130.577 27.389L130.5 27.552L130.398 27.7185L130.371 27.8742L130.118 28.2147L129.987 28.3602L129.886 28.5268L129.622 28.793L129.354 29.0346L129.266 29.1233L128.73 29.4296L128.56 29.4798L128.37 29.5584L128.034 29.6835L127.865 29.7337L127.604 29.8479L127.07 30.0022ZM126.378 26.6675L126.699 26.6202L127.031 26.4703L127.239 26.3386L127.549 26.0404L127.671 25.6686L127.769 25.3005L127.793 25.1201L127.763 24.9222L127.783 24.5403L127.807 24.3599L127.806 24.0064L127.851 23.7976L127.825 23.4477L127.873 23.2636L127.9 22.9311L127.896 22.7296L127.948 22.5703L127.919 22.3724L127.883 22.3019L127.925 22.0684L127.945 21.6864L127.91 21.1103L127.952 20.8768L127.997 20.668L127.977 20.1908L128.03 20.0314L127.943 19.6146L127.987 19.229L127.993 18.925L128.014 18.7198L128.038 18.5394L127.987 18.3699L127.965 18.0447L127.985 17.8396L128.008 17.4824L128.025 17.2525L127.978 16.931L127.962 16.4785L127.939 16.1533L127.938 15.7998L127.766 15.3196L127.645 15.1858L127.439 14.9886L127.018 14.8737L126.552 14.9676L126.361 15.0461L125.987 15.2528L125.773 15.5117L125.64 15.8093L125.584 16.1206L125.511 16.3083L125.41 16.6517L125.386 16.8321L125.365 17.0373L125.293 17.5785L125.301 17.628L125.305 17.8295L125.282 18.1867L125.279 18.3387L125.231 18.6995L125.208 19.0567L125.192 19.4634L125.192 19.6402L125.168 19.8206L125.174 20.1989L125.128 20.4076L125.088 20.8179L125.064 20.9983L125.065 21.3519L125.091 21.525L125.091 21.7018L125.145 21.896L125.096 22.0801L125.024 22.4446L125.078 22.6388L125.054 22.8192L125.093 22.9145L125.076 23.1444L125.105 23.3423L125.081 23.5227L125.11 23.7205L125.091 24.1025L125.116 24.2756L125.067 24.4597L125.167 24.6219L125.186 24.9223L125.123 25.1842L125.223 25.3464L125.325 26.039L125.425 26.2012L125.489 26.2929L125.67 26.4936L125.812 26.5991L126.021 26.6442L126.226 26.6646L126.378 26.6675ZM136.893 28.1783L136.49 28.187L136.292 28.2161L135.9 28.2991L134.886 28.4482L134.734 28.4453L134.536 28.4744L134.162 28.5043L133.935 28.5123L133.74 28.3893L133.736 28.1878L133.749 27.9332L133.695 27.5622L133.74 27.3534L133.756 27.1235L133.755 26.77L133.761 26.4659L133.76 26.2891L133.812 25.953L133.81 25.5995L133.784 25.2496L133.812 25.0939L133.811 24.9171L133.835 24.7367L133.831 24.5352L133.876 24.3264L133.879 24.1744L133.873 23.7961L133.865 23.3931L133.927 23.1312L133.866 22.8875L133.889 22.5303L133.934 22.3215L133.955 22.1164L133.958 21.9643L133.932 21.7912L133.959 21.4587L133.961 21.1299L133.961 20.9531L133.991 20.6454L133.969 20.497L133.98 20.3944L133.993 20.1398L134.041 19.779L134.014 19.4291L134.046 19.2981L134.097 18.9621L134.093 18.7605L134.141 18.3997L134.139 18.0462L134.11 17.8483L134.11 17.6715L134.134 17.4911L134.175 17.2576L134.167 17.0313L134.148 16.7309L134.172 16.5505L134.175 16.3984L134.22 16.1897L134.212 15.9634L134.215 15.8114L134.19 15.6382L134.217 15.4826L134.22 15.3305L134.215 14.9522L134.263 14.5914L134.196 13.7926L134.216 13.4107L134.243 13.0783L134.304 12.4628L134.331 12.1304L134.302 11.9325L134.301 11.7557L134.271 11.3811L134.288 11.1512L134.344 11.0166L134.537 10.786L134.88 10.7103L135.498 10.6194L135.65 10.6223L135.919 10.5575L136.438 10.4811L137.657 10.3523L138.643 10.1821L138.993 10.1559L139.735 10.0467L140.014 10.0562L140.265 10.0445L140.651 10.0889L140.959 10.1194L141.224 10.2067L141.461 10.2729L141.766 10.4555L142.139 10.7545L142.39 10.9196L142.511 11.0535L142.603 11.1662L142.746 11.4485L142.945 11.7729L142.999 11.9671L143.025 12.1403L143.103 12.3309L143.196 12.6204L143.226 12.9951L143.223 13.1471L143.249 13.3202L143.246 13.4723L143.222 13.6527L143.244 13.8011L143.241 14.1299L143.242 14.3067L143.191 14.6428L143.237 14.7875L143.213 14.968L143.199 15.0458L143.2 15.2226L143.172 15.3783L143.148 15.5587L143.096 15.718L143.03 15.9551L142.897 16.2527L142.76 16.5255L142.606 16.8514L142.332 17.2202L142.222 17.3374L142.121 17.504L142.011 17.6211L141.853 17.7455L141.582 17.9623L141.303 18.1296L141.095 18.2613L141.117 18.4097L141.379 18.4722L141.672 18.5806L141.91 18.6468L142.236 18.801L142.409 18.9523L142.58 19.0789L142.764 19.3044L142.889 19.463L143.053 19.7169L143.138 19.9569L143.234 20.0944L143.331 20.4087L143.477 20.7157L143.5 21.0409L143.586 21.2809L143.594 21.5072L143.641 21.8287L143.642 22.0055L143.647 22.3838L143.627 22.7657L143.6 23.0981L143.601 23.2749L143.578 23.6321L143.55 23.7878L143.526 23.9682L143.499 24.1239L143.475 24.3043L143.195 25.154L143.016 25.4835L142.908 25.7774L142.802 25.9193L142.651 26.0932L142.57 26.2314L142.391 26.3842L142.253 26.4802L142.148 26.6221L141.989 26.7465L141.88 26.8636L141.767 26.956L141.605 27.0556L141.422 27.1837L141.161 27.2979L140.974 27.4012L140.829 27.4478L140.61 27.5053L140.299 27.6268L140.147 27.6238L139.787 27.7526L139.413 27.7825L139.236 27.7832L139.066 27.8334L138.402 27.9564L138.077 27.9789L137.875 27.9833L137.529 28.0342L137.335 28.0881L137.261 28.099L136.893 28.1783ZM138.106 17.0079L138.448 16.9323L138.738 16.8391L138.917 16.6864L139.164 16.4732L139.425 16.1822L139.515 15.9414L139.677 15.665L139.75 15.3005L139.78 14.9928L139.808 14.8371L139.803 14.6356L139.866 14.3737L139.801 14.1053L139.751 13.9358L139.683 13.6426L139.491 13.3676L139.398 13.2549L139.175 13.1109L139.023 13.1079L138.793 13.0912L138.34 13.1072L137.722 13.1982L137.532 13.2768L137.557 13.4499L137.516 13.6834L137.524 13.9097L137.524 14.0864L137.494 14.3942L137.519 14.5673L137.492 14.8998L137.493 15.0765L137.465 15.2322L137.471 16.4696L137.45 16.6748L137.462 16.9258L137.484 17.0742L137.805 17.0269L138.106 17.0079ZM137.636 24.8093L137.848 24.7024L138.477 24.6856L138.947 24.6165L139.109 24.5169L139.282 24.4914L139.444 24.3917L139.642 24.1858L139.793 24.012L139.909 23.7675L139.904 23.566L139.988 23.2758L140.012 23.0954L140.007 22.8938L140.084 22.5541L140.068 22.1016L139.981 21.6848L139.959 21.3596L139.649 20.7987L139.34 20.5914L138.845 20.4874L138.59 20.4743L138.385 20.454L138.039 20.5049L137.763 20.5202L137.417 20.5711L137.375 20.8046L137.391 21.2571L137.371 21.4623L137.336 21.5685L137.341 21.9468L137.317 22.1272L137.343 22.3003L137.315 22.456L137.319 22.6575L137.321 23.011L137.297 23.1915L137.277 23.5734L137.303 23.7465L137.304 24.1001L137.284 24.3052L137.288 24.5067L137.237 24.8428L137.636 24.8093ZM147.191 26.6888L146.817 26.7186L146.64 26.7194L144.831 26.9602L144.601 26.9435L144.522 26.7529L144.546 26.5725L144.549 26.4204L144.654 26.1018L144.805 25.7512L144.943 24.9728L145.048 24.6541L145.128 24.3391L145.312 23.7055L145.364 23.3694L145.496 22.8951L145.524 22.7394L145.622 22.5481L145.702 22.2331L145.73 22.0774L145.729 21.9006L145.781 21.7413L145.858 21.4016L145.907 21.2175L146.029 20.8458L146.053 20.6654L146.069 20.4355L146.164 20.2194L146.269 19.9008L146.293 19.7204L146.39 19.3523L146.393 19.2002L146.442 19.0162L146.494 18.8569L146.567 18.4924L146.619 18.3331L146.715 17.6114L146.76 17.4026L146.886 17.0556L146.948 16.617L147.057 16.3231L147.109 16.1638L147.136 15.8313L147.234 15.64L147.261 15.3075L147.292 15.1766L147.393 14.8332L147.417 14.476L147.515 14.2847L147.592 14.1217L147.713 13.5732L147.79 13.2335L147.842 13.0742L147.958 12.8297L147.996 12.5715L148.044 12.3874L148.201 11.9095L148.225 11.7291L148.278 11.5697L148.305 11.4141L148.329 11.2337L148.438 10.9398L148.515 10.7768L148.546 10.6459L148.629 10.1788L148.755 9.83181L148.912 9.35385L148.961 9.1698L149.013 9.01048L149.072 8.72386L149.242 8.67366L149.489 8.63728L149.963 8.59289L150.206 8.53177L150.602 8.47356L151.068 8.3797L151.291 8.34696L151.471 8.37096L151.69 8.31348L152.086 8.25527L152.217 8.28655L152.408 8.38475L152.639 9.43739L152.719 9.98154L152.79 10.1227L152.856 10.5679L153.011 11.4547L153.062 11.8009L153.134 12.1188L153.257 12.6062L153.308 12.9525L153.387 13.3199L153.388 13.4967L153.468 14.0408L153.568 14.3798L153.641 14.8745L153.716 15.2171L153.714 15.3692L153.786 15.6871L153.807 15.8355L153.89 16.2276L153.98 16.4924L154.122 17.457L154.19 17.7501L154.244 17.9444L154.353 18.6864L154.545 19.8205L154.571 19.9937L154.65 20.361L154.68 20.7357L154.755 21.0783L154.756 21.2551L154.944 22.1877L154.966 22.3361L155.038 22.654L155.088 22.8235L155.143 23.1945L155.169 23.5444L155.223 23.7386L155.255 23.9613L155.36 24.5018L155.437 25.0212C155.515 25.2118 155.51 25.3473 155.421 25.4278L155.148 25.4678L154.979 25.518L154.777 25.5224L154.431 25.5733L153.891 25.6781L153.693 25.7072L153.392 25.7262L153.223 25.7764L152.979 25.8375L152.654 25.86L152.283 25.9146L152.173 25.855L152.087 25.6149L151.997 25.1733L151.936 24.9296L151.924 24.6786L151.753 23.5161L151.699 23.3219L151.152 23.3772L150.749 23.386L149.657 23.5213L148.989 23.6195L148.905 23.9098L148.779 24.2568L148.755 24.4372L148.707 24.6213L148.651 24.9326L148.473 25.439L148.379 25.8318L148.345 26.1148L148.289 26.2494L148.216 26.4371L148.082 26.5578L147.386 26.6349L147.191 26.6888ZM150.396 20.1276L151.138 20.0185L151.268 19.873L151.242 19.5231L151.188 19.3288L151.184 19.1273L151.089 18.4843L151.088 18.3075L151.026 17.887L151.047 17.6819L150.935 17.0919L150.821 16.1484L150.715 15.2543L150.607 14.6891L150.42 14.7924L150.368 15.1285L150.302 15.5424L150.265 15.8006L150.199 16.2146L150.129 16.427L150.067 16.6889L150.068 16.8657L149.994 17.0534L149.953 17.2869L149.904 17.4709L149.862 17.7045L149.794 18.2704L149.795 18.4472L149.726 18.8364L149.652 19.0241L149.59 19.4628L149.566 19.6432L149.55 19.873L149.501 20.0571L149.696 20.18L149.894 20.1509L150.169 20.1356L150.396 20.1276ZM166.326 23.8742L166.15 23.8749L165.432 23.9805L165.079 23.9819L164.881 24.011L164.711 24.0612L164.436 24.0765L164.259 24.0772L164.065 24.1311L163.86 24.1107L163.619 24.0198L163.586 23.7972L163.559 23.2705L163.6 22.8602L163.623 22.503L163.622 22.3262L163.618 22.1247L163.638 21.7428L163.637 21.566L163.657 21.3609L163.656 21.1841L163.708 20.848L163.662 20.7033L163.67 20.2471L163.704 19.9641L163.721 19.7343L163.763 19.5007L163.779 19.2709L163.785 18.9668L163.76 18.7936L163.784 18.6132L163.787 18.4612L163.811 18.2808L163.76 18.1113L163.853 17.5417L163.848 17.1634L163.827 17.015L163.85 16.6578L163.853 16.5057L163.851 16.1522L163.8 15.8059L163.848 15.4451L163.823 15.272L163.821 14.9184L163.891 14.706L163.844 14.3844L163.85 14.0804L163.877 13.7479L163.949 13.3834L163.947 12.8531L163.896 12.5068L163.945 12.3228L163.944 11.9692L163.946 11.8172L163.896 11.6477L163.952 11.3363L163.954 11.1843L163.981 10.8518L163.981 10.6751L164.032 10.339L163.982 10.1695L163.978 9.96797L163.963 9.86904L163.196 9.98182L162.97 9.98983L162.154 10.1099L161.737 10.1965L161.756 10.4969L161.732 10.6773L161.733 11.0309L161.731 11.1829L161.76 11.3808L161.73 11.8653L161.731 12.2188L161.659 12.7601L161.688 12.9579L161.683 13.262L161.638 13.6476L161.638 14.5067L161.581 15.1469L161.562 15.7056L161.529 16.3421L161.485 16.7277L161.51 16.9008L161.507 17.0529L161.483 17.2333L161.481 17.5621L161.454 17.7178L161.376 18.7399L161.304 19.2811L161.26 19.6667L161.236 19.8471L161.216 20.229L161.164 20.3883L161.115 20.5724L161.056 20.859L161.015 21.0925L160.963 21.2519L160.827 21.7014L160.715 21.9706L160.637 22.1336L160.374 22.5766L160.125 22.9418L160.026 23.1331L159.9 23.3034L159.548 23.6584L159.22 24.0097L158.903 24.2586L158.72 24.3866L158.533 24.4899L158.131 24.6754L157.277 25.0537L156.736 25.1585L156.569 24.8799L156.457 24.2899L156.416 23.8411L156.319 23.35L156.22 22.6822L156.169 22.1592L156.15 21.8587C156.376 21.7918 156.601 21.6659 156.827 21.4811L157.263 21.0126L157.565 20.4881L157.776 20.0276L157.873 19.6595L157.904 19.3518L157.976 18.9873L158.024 18.6265L158.086 18.1878L158.14 17.5229L158.139 17.3462L158.156 17.1163L158.183 16.7838L158.143 16.5117L158.179 15.8999L158.2 15.6948L158.173 15.3449L158.226 15.1856L158.166 14.4363L158.236 14.2239L158.26 14.0434L158.213 13.8987L158.212 13.5451L158.256 13.1596L158.204 12.4597L158.253 12.2757L158.226 11.749L158.303 11.586L158.348 11.3773L158.347 11.2005L158.301 11.0557L158.3 10.8789L158.376 10.5392L158.375 10.1857L158.427 10.0263L158.402 9.85321L158.45 9.66916L158.379 9.52803L158.403 9.34762L158.405 9.0188L158.433 8.86312L158.436 8.71108L158.364 8.39318L158.391 8.2375L158.316 8.07164L158.372 7.76028L158.424 7.60096L158.427 7.44892L158.674 7.23576L159.062 7.12808L159.207 7.08152L159.627 7.01967L159.882 7.03276L160.055 7.00729L160.257 7.00292L161.179 6.91778L162.479 6.65076L163.553 6.56852L163.921 6.48921L164.09 6.43901L164.592 6.41572L164.836 6.3546L165.062 6.34659L165.408 6.29566L165.578 6.24546L166.889 6.05264L167.058 6.00244L167.341 6.03662L167.477 6.26941L167.474 6.42145L167.521 6.74299L167.483 6.82447L167.498 7.10018L167.544 7.24494L167.485 7.35479L167.517 7.5774L167.461 7.71198L167.463 8.06553L167.397 8.30269L167.426 8.50056L167.423 8.6526L167.448 8.82574L167.445 8.97778L167.416 9.63905L167.407 9.9184L167.379 10.0741L167.373 10.3782L167.374 10.5549L167.393 10.8554L167.394 11.0322L167.392 11.361L167.361 11.6687L167.334 12.0011L167.328 12.1285L167.304 12.4856L167.263 12.7192L167.296 12.9418L167.296 13.1185L167.301 13.3201L167.326 13.4932L167.324 13.822L167.286 14.0803L167.272 14.8405L167.248 15.0209L167.175 15.3853L167.204 15.5832L167.175 16.2445L167.169 16.5486L167.121 16.9094L167.15 17.1073L167.102 17.4681L167.131 17.666L167.133 18.0195L167.126 18.1468L167.177 18.4931L167.09 18.7586L167.155 19.0271L167.135 19.409L167.14 19.6105L167.088 19.9466L167.117 20.1445L167.094 20.5016L167.095 20.8552L167.093 21.184L167.118 21.3571L167.084 21.6401L167.073 22.2483L167.046 22.5808L167.047 22.9343L167.02 23.2668L167.025 23.4683L166.983 23.7018L166.722 23.816L166.326 23.8742ZM174.888 16.9799L173.492 17.1094L172.997 17.1822L172.548 17.2229L172.375 17.2484L172.001 17.2782L171.848 17.0986L171.78 16.8054L171.8 16.6002L171.823 16.2431L171.84 16.0132L171.906 15.776L172.052 15.2239L172.052 15.0471L172.314 14.4273L172.518 14.0941L172.563 13.8853L172.665 13.7187L172.844 13.3892L172.977 13.0916L173.135 12.9672L173.205 12.7548L173.311 12.6129L173.363 12.4536L173.444 12.3154L173.598 11.9895L173.724 11.6425L173.78 11.5079L173.832 11.1718L173.933 11.0052L174.017 10.7149L174.037 10.5098L174.135 10.1417L174.133 9.78814L174.161 9.63246L174.138 9.13051L174.055 8.7384L173.965 8.47361L173.851 8.21245L173.62 8.01895L173.306 7.93894L172.843 8.05753L172.614 8.21758L172.357 8.53331L172.263 8.92615L172.243 9.13129L172.28 9.55541L172.256 9.73582L172.29 10.312L172.291 10.6655L172.112 10.8183L171.971 10.8896L171.547 10.9267L171.133 11.038L169.699 11.249L169.334 11.1763L169.192 10.894L169.192 10.2117L169.191 9.85813L169.187 9.65662L169.214 9.32417L169.181 9.10156L169.257 8.76183L169.302 8.55305L169.302 8.37627L169.35 8.19222L169.454 7.69681L169.457 7.54477L169.583 7.19776L169.66 7.03481L169.818 6.73363L169.895 6.57067L170.106 6.28695L170.244 6.19092L170.42 6.01341L170.55 5.86792L170.903 5.68968L171.029 5.51944L171.357 5.34484L171.749 5.2619L171.936 5.15859L172.117 5.18259L172.424 5.03636L172.819 4.97815L173.137 4.90612L173.282 4.85956L173.911 4.84281L174.407 4.94682L174.743 4.99846L174.948 5.01882L175.295 5.14466L175.5 5.16502L175.684 5.21376L175.879 5.3367L176.057 5.51274L176.511 5.85027L176.61 6.01249L176.682 6.15362L176.998 6.58718L177.059 6.83088L177.301 7.27536L177.419 7.56125L177.482 8.1585L177.459 8.69247L177.489 9.06711L177.462 9.22279L177.462 9.39957L177.39 9.76403L177.366 9.94444L177.349 10.1743L177.3 10.3584L177.227 10.7228L177.249 10.8712L177.095 11.1972L176.983 11.4663L176.899 11.7566L176.776 11.9516L176.668 12.2455L176.619 12.4295L176.437 12.7343L176.332 13.053L176.142 13.3083L176.02 13.68L175.918 13.8466L175.663 14.5159L175.61 14.6752L175.481 14.9975L175.453 15.1532L175.363 15.5708L175.332 15.8785L175.263 16.0909L175.235 16.2466L175.19 16.4554L175.209 16.7558L175.111 16.9471L174.888 16.9799ZM174.583 22.6345L174.48 22.6243L173.664 22.7444L173.091 22.8033L172.643 22.8441L172.392 22.8557L172.063 22.8536L171.907 22.8259L171.836 22.6848L171.741 22.0417L171.775 21.7587L171.722 21.5645L171.749 21.4088L171.744 21.0305L171.715 19.9735L171.731 19.5669L171.762 19.4359L171.913 19.2621L172.207 19.1937L172.655 19.1529L173.302 19.083L173.5 19.0539L173.744 18.9928L173.896 18.9957L174.292 18.9375L174.666 18.9077L174.839 18.8822L175.08 18.9731L175.307 19.1419L175.383 19.4845L175.363 19.8665L175.357 20.1706L175.359 20.5241L175.325 20.9839L175.365 21.2559L175.36 21.56L175.382 21.8852L175.337 22.094L175.154 22.3988L174.805 22.6018L174.583 22.6345Z" fill="white"/>
</svg>
